<svg width="150" height="150" viewBox="0 0 150 150" fill="none" xmlns="http://www.w3.org/2000/svg">
<rect width="150" height="150" fill="#1E1E1E"/>
<g filter="url(#filter0_d_0_1)">
<path d="M28.6875 119L5 52.75H19.125L36.9375 107.75H38.0625L55.875 52.75H70L46.3125 119H28.6875ZM109.438 120.25C104.396 120.25 99.6667 119.833 95.25 119C90.875 118.208 86.8125 117 83.0625 115.375L84.6875 102.75C89.2708 104.708 93.6875 106.208 97.9375 107.25C102.229 108.25 106.396 108.75 110.438 108.75C116.271 108.75 120.604 107.729 123.438 105.688C126.271 103.646 127.688 100.542 127.688 96.375C127.688 91.0833 124.979 87.2083 119.562 84.75L104.188 77.75C98.1458 75 93.5 71.6875 90.25 67.8125C87.0417 63.9375 85.4375 59.125 85.4375 53.375C85.4375 45.625 87.7708 39.625 92.4375 35.375C97.1042 31.125 103.708 29 112.25 29C118.208 29 123.479 29.875 128.062 31.625C132.646 33.375 137.062 36.2292 141.312 40.1875L132.562 49.0625C128.896 46.0625 125.458 43.8958 122.25 42.5625C119.083 41.1875 115.771 40.5 112.312 40.5C108.021 40.5 104.688 41.5417 102.312 43.625C99.9792 45.6667 98.8125 48.7083 98.8125 52.75C98.8125 55.625 99.5833 57.9792 101.125 59.8125C102.667 61.6042 104.938 63.2083 107.938 64.625L120.938 70.75C127.521 73.8333 132.521 77.3125 135.938 81.1875C139.354 85.0625 141.062 90.0417 141.062 96.125C141.062 104.167 138.438 110.208 133.188 114.25C127.979 118.25 120.062 120.25 109.438 120.25Z" fill="#CCEEFF"/>
</g>
<defs>
<filter id="filter0_d_0_1" x="-1" y="29" width="144.312" height="99.25" filterUnits="userSpaceOnUse" color-interpolation-filters="sRGB">
<feFlood flood-opacity="0" result="BackgroundImageFix"/>
<feColorMatrix in="SourceAlpha" type="matrix" values="0 0 0 0 0 0 0 0 0 0 0 0 0 0 0 0 0 0 127 0" result="hardAlpha"/>
<feOffset dx="-2" dy="4"/>
<feGaussianBlur stdDeviation="2"/>
<feComposite in2="hardAlpha" operator="out"/>
<feColorMatrix type="matrix" values="0 0 0 0 0.8 0 0 0 0 0.933333 0 0 0 0 1 0 0 0 0.15 0"/>
<feBlend mode="normal" in2="BackgroundImageFix" result="effect1_dropShadow_0_1"/>
<feBlend mode="normal" in="SourceGraphic" in2="effect1_dropShadow_0_1" result="shape"/>
</filter>
</defs>
</svg>
